# xmcd
#
# Track frame offsets: 
#        150
#        16297
#        31104
#        51667
#        66170
#        83018
#        100341
#        115023
#        130439
#        146330
#        162572
#        180472
#        198456
#        215019
#        230187
#        246355
#
# Disc length: 3508 seconds
#
# Revision: 0
# Processed by: cddbd v1.5.2PL0 Copyright (c) Steve Scherf et al.
# Submitted via: ExactAudioCopy v1.0b1
#
DISCID=ea0db210
DTITLE=Various Artist - Now Country 6
DYEAR=2012
DGENRE=Country
TTITLE0=Zac Brown Band - Keep Me In Mind
TTITLE1=Lady Antebellum - We Owned The Night
TTITLE2=Keith Urban - Long Hot Summer
TTITLE3=Eric Church - Drink in My Hand
TTITLE4=Terri Clark - The One
TTITLE5=Blake Shelton - God Gave Me You
TTITLE6=Johnny Reid - You Gave My Heart A Home
TTITLE7=Darius Rucker - I Got Nothin'
TTITLE8=Dallas Smith - Somebody Somewhere
TTITLE9=Paul Brandt - Together Again
TTITLE10=The Stellas - In This House
TTITLE11=Dierks Bentley - Home
TTITLE12=Luke Bryan - I Don't Want This Night to End
TTITLE13=Eli Young Band - Crazy Girl
TTITLE14=Brantley Gilbert - Country Must Be Country Wide
TTITLE15=Chad Brownlee - Love Me or Leave Me
EXTD=
EXTT0=
EXTT1=
EXTT2=
EXTT3=
EXTT4=
EXTT5=
EXTT6=
EXTT7=
EXTT8=
EXTT9=
EXTT10=
EXTT11=
EXTT12=
EXTT13=
EXTT14=
EXTT15=
PLAYORDER=
